<?xml version="1.0" encoding="UTF-8" standalone="no" ?>
<!DOCTYPE svg PUBLIC "-//W3C//DTD SVG 1.1//EN" "http://www.w3.org/Graphics/SVG/1.1/DTD/svg11.dtd">
<svg xmlns="http://www.w3.org/2000/svg" xmlns:xlink="http://www.w3.org/1999/xlink" version="1.1" width="700" height="170" viewBox="0 0 700 170" xml:space="preserve">
<desc>Created with Fabric.js 3.6.3</desc>
<defs>
</defs>
<g transform="matrix(0.36 0 0 0.36 93.32 82.68)"  >
<path style="stroke: none; stroke-width: 1; stroke-dasharray: none; stroke-linecap: butt; stroke-dashoffset: 0; stroke-linejoin: miter; stroke-miterlimit: 4; fill: rgb(255,255,255); fill-rule: nonzero; opacity: 1;"  transform=" translate(-256, -255.96)" d="M 320.2 243.8 l -49.7 99.4 c -6 12.1 -23.4 11.7 -28.9 -0.6 l -56.9 -126.3 l -30 71.7 H 60.6 l 182.5 186.5 c 7.1 7.3 18.6 7.3 25.7 0 L 451.4 288 H 342.3 l -22.1 -44.2 z M 473.7 73.9 l -2.4 -2.5 c -51.5 -52.6 -135.8 -52.6 -187.4 0 L 256 100 l -27.9 -28.5 c -51.5 -52.7 -135.9 -52.7 -187.4 0 l -2.4 2.4 C -10.4 123.7 -12.5 203 31 256 h 102.4 l 35.9 -86.2 c 5.4 -12.9 23.6 -13.2 29.4 -0.4 l 58.2 129.3 l 49 -97.9 c 5.9 -11.8 22.7 -11.8 28.6 0 l 27.6 55.2 H 481 c 43.5 -53 41.4 -132.3 -7.3 -182.1 z" stroke-linecap="round" />
</g>
<g transform="matrix(1.33 0 0 1.33 419.71 140.27)" id="fontsvg1636564688109"  >
<path style="stroke: none; stroke-width: 1; stroke-dasharray: none; stroke-linecap: round; stroke-dashoffset: 0; stroke-linejoin: miter; stroke-miterlimit: 4; fill: rgb(255,255,255); fill-rule: evenodd; opacity: 1;" vector-effect="non-scaling-stroke"  transform=" translate(-205.66, -20.08)" d="M 297.281 30.16 L 303.321 2.76 A 9.423 9.423 0 0 0 301.122 3.856 A 7.428 7.428 0 0 0 299.181 5.78 A 7.957 7.957 0 0 0 297.887 9.092 A 10.596 10.596 0 0 0 297.761 10.76 A 10.166 10.166 0 0 0 297.848 12.122 A 8.054 8.054 0 0 0 298.041 13.1 A 6.133 6.133 0 0 0 298.32 13.927 Q 298.499 14.35 298.731 14.689 A 3.586 3.586 0 0 0 298.841 14.84 Q 296.281 14.84 295.061 13.78 Q 293.984 12.845 293.857 11.021 A 7.246 7.246 0 0 1 293.841 10.52 Q 293.841 7.72 295.481 5.3 A 11.556 11.556 0 0 1 299.364 1.743 A 13.759 13.759 0 0 1 299.921 1.44 Q 302.721 0 306.001 0 Q 306.921 0 307.601 0.12 A 7.236 7.236 0 0 1 308.21 0.257 Q 308.528 0.342 308.88 0.462 A 13.705 13.705 0 0 1 309.161 0.56 L 313.961 21.96 L 318.441 0.24 L 322.321 0.24 L 315.801 30.16 L 310.281 30.16 L 305.641 10.32 L 301.081 30.16 L 297.281 30.16 Z M 162.481 23 A 20.156 20.156 0 0 1 162.341 23.34 Q 161.916 24.349 161.491 25.031 A 5.598 5.598 0 0 1 161.041 25.66 A 2.309 2.309 0 0 1 160.032 26.373 A 2.703 2.703 0 0 1 159.121 26.52 A 2.831 2.831 0 0 1 158.723 26.494 Q 158.494 26.462 158.314 26.389 A 1.059 1.059 0 0 1 157.881 26.08 Q 157.521 25.64 157.521 24.84 A 3.962 3.962 0 0 1 157.523 24.701 Q 157.539 24.26 157.649 23.637 A 16.205 16.205 0 0 1 157.781 22.98 Q 158.041 21.8 158.361 20.56 A 95.936 95.936 0 0 0 158.662 19.346 Q 158.968 18.077 159.161 17.1 Q 159.441 15.68 159.441 14.52 A 7.743 7.743 0 0 0 159.414 13.872 Q 159.357 13.187 159.172 12.624 A 3.504 3.504 0 0 0 158.241 11.12 A 3.866 3.866 0 0 0 158.204 11.087 Q 157.446 10.397 156.358 10.145 A 6.014 6.014 0 0 0 155.001 10 A 5.733 5.733 0 0 0 151.987 10.832 A 7.288 7.288 0 0 0 150.321 12.24 L 150.761 10.16 L 145.001 10.16 L 140.761 30.16 L 146.521 30.16 L 149.241 17.32 Q 149.496 16.449 149.841 15.753 A 6.297 6.297 0 0 1 150.521 14.66 A 3.263 3.263 0 0 1 151.051 14.117 A 2.057 2.057 0 0 1 152.361 13.64 Q 153.519 13.64 153.746 14.961 A 4.28 4.28 0 0 1 153.801 15.68 A 5.257 5.257 0 0 1 153.8 15.758 Q 153.788 16.583 153.521 17.88 Q 153.241 19.24 152.921 20.64 A 2.994 2.994 0 0 0 152.916 20.658 Q 152.85 20.894 152.698 21.571 A 94.62 94.62 0 0 0 152.621 21.92 Q 152.401 22.92 152.201 23.98 A 14.512 14.512 0 0 0 152.169 24.155 Q 152.087 24.622 152.044 25.045 A 8.469 8.469 0 0 0 152.001 25.88 A 6.013 6.013 0 0 0 152.028 26.465 A 4.563 4.563 0 0 0 153.141 29.1 A 3.334 3.334 0 0 0 154.085 29.845 Q 155.125 30.4 156.721 30.4 A 5.873 5.873 0 0 0 159.079 29.899 A 7.8 7.8 0 0 0 160.741 28.9 Q 162.165 27.799 163.342 25.133 A 25.159 25.159 0 0 0 164.161 23 L 162.481 23 L 165.201 10.16 L 170.961 10.16 L 168.081 23.76 A 4.802 4.802 0 0 0 167.928 24.747 A 5.566 5.566 0 0 0 167.921 25.04 A 2.654 2.654 0 0 0 167.949 25.444 Q 167.981 25.65 168.048 25.814 A 0.99 0.99 0 0 0 168.301 26.18 A 1.104 1.104 0 0 0 168.647 26.384 Q 168.968 26.507 169.452 26.519 A 4.316 4.316 0 0 0 169.561 26.52 A 2.769 2.769 0 0 0 171.08 26.057 A 4.026 4.026 0 0 0 171.721 25.54 A 5.219 5.219 0 0 0 172.831 23.919 A 6.749 6.749 0 0 0 173.161 23 L 174.841 23 A 19.702 19.702 0 0 1 173.942 25.211 Q 172.708 27.754 171.041 28.86 A 10.199 10.199 0 0 1 169.126 29.872 A 7.32 7.32 0 0 1 166.441 30.4 A 4.988 4.988 0 0 1 165.028 30.21 A 3.854 3.854 0 0 1 163.341 29.2 Q 162.161 28 162.161 25.6 A 8.191 8.191 0 0 1 162.192 24.917 Q 162.261 24.1 162.481 23 Z M 108.001 17.32 L 105.281 30.16 L 99.521 30.16 L 102.441 16.36 Q 102.561 15.88 102.561 15.36 A 3.82 3.82 0 0 0 102.515 14.74 Q 102.333 13.643 101.431 13.602 A 1.566 1.566 0 0 0 101.361 13.6 A 2.28 2.28 0 0 0 99.794 14.223 A 3.39 3.39 0 0 0 99.421 14.62 Q 98.601 15.64 98.121 17.32 L 95.401 30.16 L 89.641 30.16 L 93.881 10.16 L 99.641 10.16 L 99.201 12.24 A 7.185 7.185 0 0 1 101.064 10.722 A 6.117 6.117 0 0 1 104.081 9.96 Q 107.109 9.96 107.976 12.507 A 5.937 5.937 0 0 1 108.201 13.4 A 9.109 9.109 0 0 1 109.679 11.617 A 5.862 5.862 0 0 1 113.761 10 A 6.014 6.014 0 0 1 115.118 10.145 Q 116.206 10.397 116.964 11.087 A 3.866 3.866 0 0 1 117.001 11.12 A 3.504 3.504 0 0 1 117.932 12.624 Q 118.117 13.187 118.174 13.872 A 7.743 7.743 0 0 1 118.201 14.52 Q 118.201 15.68 117.921 17.1 Q 117.728 18.077 117.422 19.346 A 95.936 95.936 0 0 1 117.121 20.56 Q 116.801 21.8 116.541 22.98 A 16.205 16.205 0 0 0 116.409 23.637 Q 116.299 24.26 116.283 24.701 A 3.962 3.962 0 0 0 116.281 24.84 Q 116.281 25.64 116.641 26.08 A 1.059 1.059 0 0 0 117.074 26.389 Q 117.254 26.462 117.483 26.494 A 2.831 2.831 0 0 0 117.881 26.52 A 2.703 2.703 0 0 0 118.792 26.373 A 2.309 2.309 0 0 0 119.801 25.66 A 5.598 5.598 0 0 0 120.251 25.031 Q 120.676 24.349 121.101 23.34 A 20.156 20.156 0 0 0 121.241 23 L 122.921 23 A 25.159 25.159 0 0 1 122.102 25.133 Q 120.925 27.799 119.501 28.9 A 7.8 7.8 0 0 1 117.839 29.899 A 5.873 5.873 0 0 1 115.481 30.4 Q 113.885 30.4 112.845 29.845 A 3.334 3.334 0 0 1 111.901 29.1 A 4.563 4.563 0 0 1 110.788 26.465 A 6.013 6.013 0 0 1 110.761 25.88 A 8.469 8.469 0 0 1 110.804 25.045 Q 110.847 24.622 110.929 24.155 A 14.512 14.512 0 0 1 110.961 23.98 Q 111.161 22.92 111.381 21.92 A 94.62 94.62 0 0 1 111.458 21.571 Q 111.61 20.894 111.676 20.658 A 2.994 2.994 0 0 1 111.681 20.64 Q 112.001 19.24 112.281 17.88 Q 112.548 16.583 112.56 15.758 A 5.257 5.257 0 0 0 112.561 15.68 A 4.28 4.28 0 0 0 112.506 14.961 Q 112.279 13.64 111.121 13.64 A 2.057 2.057 0 0 0 109.811 14.117 A 3.263 3.263 0 0 0 109.281 14.66 A 6.297 6.297 0 0 0 108.601 15.753 Q 108.256 16.449 108.001 17.32 Z M 80.681 23.76 L 81.001 22.2 Q 81.161 21.52 81.161 20.72 Q 81.161 18.8 79.721 18.8 Q 79.081 18.8 78.381 19.16 Q 77.681 19.52 76.761 20.28 L 74.681 30.16 L 68.921 30.16 L 74.721 2.96 L 80.641 2.16 L 77.641 16.24 L 85.361 10.16 L 89.321 10.16 L 81.321 15.72 A 4.707 4.707 0 0 1 82.117 15.583 A 5.909 5.909 0 0 1 82.641 15.56 Q 84.591 15.56 85.693 16.637 A 3.551 3.551 0 0 1 85.921 16.88 A 4.641 4.641 0 0 1 86.947 19.121 A 6.427 6.427 0 0 1 87.041 20.24 Q 87.041 21.08 86.881 21.76 L 86.441 23.76 Q 86.274 24.36 86.246 24.849 A 3.37 3.37 0 0 0 86.241 25.04 A 2.017 2.017 0 0 0 86.321 25.635 Q 86.594 26.52 87.801 26.52 A 2.703 2.703 0 0 0 88.712 26.373 A 2.309 2.309 0 0 0 89.721 25.66 A 5.598 5.598 0 0 0 90.171 25.031 Q 90.596 24.349 91.021 23.34 A 20.156 20.156 0 0 0 91.161 23 L 92.841 23 A 20.135 20.135 0 0 1 91.641 25.884 Q 89.293 30.4 85.481 30.4 A 8.318 8.318 0 0 1 84.048 30.285 Q 83.279 30.151 82.67 29.858 A 3.843 3.843 0 0 1 81.721 29.22 Q 80.469 28.067 80.441 25.939 A 7.446 7.446 0 0 1 80.441 25.84 A 8.875 8.875 0 0 1 80.516 24.71 A 11.588 11.588 0 0 1 80.681 23.76 Z M 6.041 30.16 L 11.721 3.68 L 11.241 3.68 A 11.496 11.496 0 0 0 9.074 3.872 Q 7.797 4.117 6.799 4.676 A 6.076 6.076 0 0 0 5.701 5.46 A 5.014 5.014 0 0 0 4.456 7.269 Q 3.721 9.006 3.721 11.76 Q 3.721 13.24 4.001 13.82 Q 4.232 14.299 4.272 14.437 A 0.174 0.174 0 0 1 4.281 14.48 A 8.344 8.344 0 0 1 3.153 14.409 Q 1.822 14.227 1.061 13.58 Q 0.001 12.68 0.001 10.6 Q 0.001 7.76 1.401 5.42 A 8.665 8.665 0 0 1 3.63 2.973 Q 4.605 2.231 5.861 1.64 A 13.77 13.77 0 0 1 8.826 0.662 Q 10.967 0.2 13.641 0.2 A 33.273 33.273 0 0 1 16.917 0.37 A 41.908 41.908 0 0 1 19.321 0.68 A 33.884 33.884 0 0 0 21.453 0.981 Q 22.43 1.086 23.307 1.112 A 19.283 19.283 0 0 0 23.881 1.12 A 13.48 13.48 0 0 0 26.609 0.855 A 11.065 11.065 0 0 0 28.521 0.28 A 8.975 8.975 0 0 1 28.371 1.704 Q 28.072 3.249 27.201 4.12 A 3.921 3.921 0 0 1 25.603 5.07 Q 24.984 5.27 24.232 5.332 A 8.591 8.591 0 0 1 23.521 5.36 Q 22.241 5.36 20.961 5.16 Q 19.681 4.96 17.321 4.48 L 11.801 30.16 L 6.041 30.16 Z M 240.201 29.84 L 245.041 7 A 14.583 14.583 0 0 1 245.605 4.978 Q 246.424 2.733 247.861 1.68 Q 249.881 0.2 252.321 0.2 Q 254.201 0.2 255.621 1.42 Q 257.041 2.64 257.041 4.52 Q 257.041 5.379 256.936 6.064 A 7.218 7.218 0 0 1 256.921 6.16 L 255.041 6.16 A 68.687 68.687 0 0 0 255.068 5.854 Q 255.116 5.291 255.12 5.109 A 1.362 1.362 0 0 0 255.121 5.08 A 1.491 1.491 0 0 0 255.059 4.642 A 1.145 1.145 0 0 0 254.681 4.08 A 1.583 1.583 0 0 0 253.843 3.734 A 2.085 2.085 0 0 0 253.601 3.72 A 2.044 2.044 0 0 0 252.643 3.968 Q 252.298 4.148 251.961 4.46 Q 251.203 5.161 250.84 6.812 A 10.112 10.112 0 0 0 250.801 7 L 250.121 10.16 L 253.041 10.16 L 252.761 11.76 L 249.801 11.76 L 245.201 33.36 Q 244.416 37.166 242.515 38.643 A 4.565 4.565 0 0 1 242.441 38.7 Q 240.481 40.16 238.041 40.16 Q 236.161 40.16 234.741 38.94 Q 233.321 37.72 233.321 35.84 A 5.528 5.528 0 0 1 233.46 34.565 A 3.981 3.981 0 0 1 234.201 33 Q 235.081 31.88 236.481 31.22 A 18.623 18.623 0 0 1 237.552 30.76 Q 238.678 30.313 240.201 29.84 Z M 350.881 12 L 350.881 12.16 L 352.841 2.96 L 358.761 2.16 L 354.161 23.76 A 4.802 4.802 0 0 0 354.008 24.747 A 5.566 5.566 0 0 0 354.001 25.04 A 2.654 2.654 0 0 0 354.029 25.444 Q 354.061 25.65 354.128 25.814 A 0.99 0.99 0 0 0 354.381 26.18 A 1.104 1.104 0 0 0 354.727 26.384 Q 355.048 26.507 355.532 26.519 A 4.316 4.316 0 0 0 355.641 26.52 A 2.384 2.384 0 0 0 357.314 25.84 A 3.397 3.397 0 0 0 357.581 25.56 Q 358.401 24.6 358.881 23 L 360.561 23 A 16.373 16.373 0 0 1 359.193 26.049 Q 356.764 30.16 352.521 30.16 A 4.982 4.982 0 0 1 351.356 30.031 A 3.501 3.501 0 0 1 349.861 29.28 Q 348.866 28.422 348.613 26.802 A 6.411 6.411 0 0 1 348.601 26.72 A 9.804 9.804 0 0 1 346.568 29.004 A 9.178 9.178 0 0 1 346.101 29.36 A 5.615 5.615 0 0 1 343.192 30.382 A 7.034 7.034 0 0 1 342.681 30.4 Q 340.401 30.4 338.881 28.84 A 4.738 4.738 0 0 1 337.841 27.139 Q 337.361 25.828 337.361 23.96 Q 337.361 21 338.541 17.74 Q 339.721 14.48 342.061 12.22 Q 344.401 9.96 347.641 9.96 A 7.702 7.702 0 0 1 348.497 10.005 Q 349.412 10.107 349.97 10.448 A 2.109 2.109 0 0 1 350.081 10.52 Q 350.881 11.08 350.881 12 Z M 383.241 30.32 L 387.521 10.16 L 393.281 10.16 L 389.321 28.72 Q 391.241 28.08 392.401 26.8 Q 393.238 25.877 393.887 24.307 A 16.381 16.381 0 0 0 394.361 23 L 396.041 23 A 17.657 17.657 0 0 1 395.291 25.04 Q 394.838 26.06 394.296 26.855 A 7.587 7.587 0 0 1 393.121 28.22 Q 391.281 29.88 388.961 30.48 L 388.361 33.36 Q 387.576 37.166 385.675 38.643 A 4.565 4.565 0 0 1 385.601 38.7 Q 383.641 40.16 381.161 40.16 A 7.324 7.324 0 0 1 381.131 40.16 Q 379.231 40.153 377.961 39.16 A 3.245 3.245 0 0 1 376.733 37.008 A 4.814 4.814 0 0 1 376.681 36.28 A 4.469 4.469 0 0 1 378.195 32.968 Q 379.832 31.401 383.241 30.32 Z M 47.041 12 L 47.041 12.28 L 47.481 10.16 L 53.241 10.16 L 50.361 23.76 A 4.802 4.802 0 0 0 50.208 24.747 A 5.566 5.566 0 0 0 50.201 25.04 A 2.605 2.605 0 0 0 50.279 25.711 Q 50.508 26.568 51.404 26.725 A 2.529 2.529 0 0 0 51.841 26.76 A 2.248 2.248 0 0 0 53.379 26.152 A 3.394 3.394 0 0 0 53.781 25.72 A 6.279 6.279 0 0 0 54.475 24.605 Q 54.826 23.893 55.081 23 L 56.761 23 A 21.255 21.255 0 0 1 55.873 25.211 Q 54.813 27.447 53.473 28.573 A 5.617 5.617 0 0 1 53.101 28.86 A 9.301 9.301 0 0 1 51.326 29.858 A 6.71 6.71 0 0 1 48.721 30.4 A 4.878 4.878 0 0 1 47.553 30.268 A 3.428 3.428 0 0 1 46.021 29.46 Q 45.084 28.598 44.839 27.011 A 6.845 6.845 0 0 1 44.801 26.72 A 12.285 12.285 0 0 1 43.413 28.369 A 9.977 9.977 0 0 1 42.221 29.38 A 5.419 5.419 0 0 1 39.615 30.358 A 6.953 6.953 0 0 1 38.841 30.4 Q 36.561 30.4 35.041 28.84 A 4.738 4.738 0 0 1 34.001 27.139 Q 33.521 25.828 33.521 23.96 Q 33.521 21 34.701 17.74 Q 35.881 14.48 38.221 12.22 Q 40.561 9.96 43.801 9.96 A 7.702 7.702 0 0 1 44.657 10.005 Q 45.572 10.107 46.13 10.448 A 2.109 2.109 0 0 1 46.241 10.52 Q 47.041 11.08 47.041 12 Z M 134.241 12 L 134.241 12.28 L 134.681 10.16 L 140.441 10.16 L 137.561 23.76 A 4.802 4.802 0 0 0 137.408 24.747 A 5.566 5.566 0 0 0 137.401 25.04 A 2.605 2.605 0 0 0 137.479 25.711 Q 137.708 26.568 138.604 26.725 A 2.529 2.529 0 0 0 139.041 26.76 A 2.248 2.248 0 0 0 140.579 26.152 A 3.394 3.394 0 0 0 140.981 25.72 A 6.279 6.279 0 0 0 141.675 24.605 Q 142.026 23.893 142.281 23 L 143.961 23 A 21.255 21.255 0 0 1 143.073 25.211 Q 142.013 27.447 140.673 28.573 A 5.617 5.617 0 0 1 140.301 28.86 A 9.301 9.301 0 0 1 138.526 29.858 A 6.71 6.71 0 0 1 135.921 30.4 A 4.878 4.878 0 0 1 134.753 30.268 A 3.428 3.428 0 0 1 133.221 29.46 Q 132.284 28.598 132.039 27.011 A 6.845 6.845 0 0 1 132.001 26.72 A 12.285 12.285 0 0 1 130.613 28.369 A 9.977 9.977 0 0 1 129.421 29.38 A 5.419 5.419 0 0 1 126.815 30.358 A 6.953 6.953 0 0 1 126.041 30.4 Q 123.761 30.4 122.241 28.84 A 4.738 4.738 0 0 1 121.201 27.139 Q 120.721 25.828 120.721 23.96 Q 120.721 21 121.901 17.74 Q 123.081 14.48 125.421 12.22 Q 127.761 9.96 131.001 9.96 A 7.702 7.702 0 0 1 131.857 10.005 Q 132.772 10.107 133.33 10.448 A 2.109 2.109 0 0 1 133.441 10.52 Q 134.241 11.08 134.241 12 Z M 186.161 12 L 186.161 12.28 L 186.601 10.16 L 192.361 10.16 L 189.481 23.76 A 4.802 4.802 0 0 0 189.328 24.747 A 5.566 5.566 0 0 0 189.321 25.04 A 2.605 2.605 0 0 0 189.399 25.711 Q 189.628 26.568 190.524 26.725 A 2.529 2.529 0 0 0 190.961 26.76 A 2.248 2.248 0 0 0 192.499 26.152 A 3.394 3.394 0 0 0 192.901 25.72 A 6.279 6.279 0 0 0 193.595 24.605 Q 193.946 23.893 194.201 23 L 195.881 23 A 21.255 21.255 0 0 1 194.993 25.211 Q 193.933 27.447 192.593 28.573 A 5.617 5.617 0 0 1 192.221 28.86 A 9.301 9.301 0 0 1 190.446 29.858 A 6.71 6.71 0 0 1 187.841 30.4 A 4.878 4.878 0 0 1 186.673 30.268 A 3.428 3.428 0 0 1 185.141 29.46 Q 184.204 28.598 183.959 27.011 A 6.845 6.845 0 0 1 183.921 26.72 A 12.285 12.285 0 0 1 182.533 28.369 A 9.977 9.977 0 0 1 181.341 29.38 A 5.419 5.419 0 0 1 178.735 30.358 A 6.953 6.953 0 0 1 177.961 30.4 Q 175.681 30.4 174.161 28.84 A 4.738 4.738 0 0 1 173.121 27.139 Q 172.641 25.828 172.641 23.96 Q 172.641 21 173.821 17.74 Q 175.001 14.48 177.341 12.22 Q 179.681 9.96 182.921 9.96 A 7.702 7.702 0 0 1 183.777 10.005 Q 184.692 10.107 185.25 10.448 A 2.109 2.109 0 0 1 185.361 10.52 Q 186.161 11.08 186.161 12 Z M 70.441 23 L 71.801 23 A 20.574 20.574 0 0 1 69.135 26.578 Q 67.241 28.579 65.046 29.532 A 10.538 10.538 0 0 1 60.801 30.4 Q 58.501 30.4 56.998 29.471 A 5.016 5.016 0 0 1 56.201 28.86 A 4.718 4.718 0 0 1 54.997 26.96 Q 54.725 26.195 54.623 25.25 A 11.238 11.238 0 0 1 54.561 24.04 Q 54.561 21.28 55.661 17.96 Q 56.761 14.64 59.181 12.22 A 8.171 8.171 0 0 1 64.634 9.822 A 10.902 10.902 0 0 1 65.321 9.8 A 8.775 8.775 0 0 1 66.498 9.874 Q 67.873 10.061 68.617 10.723 A 2.515 2.515 0 0 1 68.741 10.84 A 3.53 3.53 0 0 1 69.747 13.113 A 4.729 4.729 0 0 1 69.761 13.48 A 5.273 5.273 0 0 1 69.702 14.293 Q 69.634 14.73 69.486 15.082 A 2.386 2.386 0 0 1 69.161 15.64 A 2.089 2.089 0 0 1 68.609 16.14 A 1.827 1.827 0 0 1 67.641 16.4 A 2.153 2.153 0 0 1 66.874 16.253 Q 66.6 16.149 66.321 15.972 A 3.857 3.857 0 0 1 66.241 15.92 A 9.275 9.275 0 0 0 66.542 14.932 Q 66.721 14.194 66.721 13.56 A 3.349 3.349 0 0 0 66.69 13.096 Q 66.657 12.855 66.585 12.658 A 1.511 1.511 0 0 0 66.441 12.36 A 0.9 0.9 0 0 0 65.793 11.935 A 1.253 1.253 0 0 0 65.601 11.92 Q 64.548 11.92 63.495 13.429 A 9.009 9.009 0 0 0 63.201 13.88 A 15.319 15.319 0 0 0 62.112 16.046 Q 61.683 17.089 61.337 18.293 A 25.535 25.535 0 0 0 61.241 18.64 A 24.23 24.23 0 0 0 60.721 20.983 Q 60.526 22.151 60.489 23.202 A 13.74 13.74 0 0 0 60.481 23.68 Q 60.481 25.215 60.897 25.977 A 1.661 1.661 0 0 0 61.161 26.34 A 2.027 2.027 0 0 0 61.908 26.816 Q 62.232 26.939 62.636 26.994 A 5.325 5.325 0 0 0 63.361 27.04 A 7.792 7.792 0 0 0 65.191 26.835 A 5.977 5.977 0 0 0 67.061 26.04 Q 68.601 25.04 70.441 23 Z M 374.241 23 L 375.601 23 A 20.574 20.574 0 0 1 372.935 26.578 Q 371.041 28.579 368.846 29.532 A 10.538 10.538 0 0 1 364.601 30.4 Q 362.301 30.4 360.798 29.471 A 5.016 5.016 0 0 1 360.001 28.86 A 4.718 4.718 0 0 1 358.797 26.96 Q 358.525 26.195 358.423 25.25 A 11.238 11.238 0 0 1 358.361 24.04 Q 358.361 21.453 359.31 18.373 A 27.895 27.895 0 0 1 359.441 17.96 Q 360.521 14.64 362.961 12.22 A 8.256 8.256 0 0 1 368.354 9.829 A 11.048 11.048 0 0 1 369.161 9.8 Q 373.561 9.8 373.561 13.64 Q 373.561 15.88 372.281 17.76 A 9.41 9.41 0 0 1 369.012 20.708 A 10.956 10.956 0 0 1 368.881 20.78 Q 366.761 21.92 364.361 22.08 A 86.46 86.46 0 0 0 364.329 22.567 Q 364.289 23.227 364.282 23.555 A 5.864 5.864 0 0 0 364.281 23.68 Q 364.281 25.215 364.697 25.977 A 1.661 1.661 0 0 0 364.961 26.34 A 2.027 2.027 0 0 0 365.708 26.816 Q 366.032 26.939 366.436 26.994 A 5.325 5.325 0 0 0 367.161 27.04 A 7.792 7.792 0 0 0 368.991 26.835 A 5.977 5.977 0 0 0 370.861 26.04 Q 372.401 25.04 374.241 23 Z M 230.921 16.2 L 230.921 16.24 Q 231.036 16.279 231.339 16.28 A 4.967 4.967 0 0 0 231.361 16.28 Q 232.387 16.28 233.654 15.857 A 12.355 12.355 0 0 0 234.401 15.58 A 15.556 15.556 0 0 0 236.939 14.274 A 13.99 13.99 0 0 0 237.521 13.88 L 237.881 14.96 A 8.467 8.467 0 0 1 236.354 16.235 A 11.342 11.342 0 0 1 234.861 17.06 A 15.268 15.268 0 0 1 231.614 18.128 A 17.566 17.566 0 0 1 230.801 18.28 A 21.132 21.132 0 0 1 230.256 21.591 A 15.805 15.805 0 0 1 229.161 24.64 A 12.581 12.581 0 0 1 227.756 26.918 A 9.625 9.625 0 0 1 225.761 28.84 Q 223.681 30.32 221.241 30.32 Q 218.281 30.32 216.561 28.8 A 4.666 4.666 0 0 1 215.257 26.803 Q 214.987 26.032 214.892 25.083 A 10.885 10.885 0 0 1 214.841 24 Q 214.841 21.551 215.749 18.616 A 27.145 27.145 0 0 1 215.961 17.96 Q 217.081 14.64 219.561 12.22 A 8.424 8.424 0 0 1 225.107 9.822 A 11.151 11.151 0 0 1 225.801 9.8 Q 230.921 9.8 230.921 16.2 Z M 267.841 16.2 L 267.841 16.24 Q 267.956 16.279 268.259 16.28 A 4.967 4.967 0 0 0 268.281 16.28 Q 269.307 16.28 270.574 15.857 A 12.355 12.355 0 0 0 271.321 15.58 A 15.556 15.556 0 0 0 273.859 14.274 A 13.99 13.99 0 0 0 274.441 13.88 L 274.801 14.96 A 8.467 8.467 0 0 1 273.274 16.235 A 11.342 11.342 0 0 1 271.781 17.06 A 15.268 15.268 0 0 1 268.534 18.128 A 17.566 17.566 0 0 1 267.721 18.28 A 21.132 21.132 0 0 1 267.176 21.591 A 15.805 15.805 0 0 1 266.081 24.64 A 12.581 12.581 0 0 1 264.676 26.918 A 9.625 9.625 0 0 1 262.681 28.84 Q 260.601 30.32 258.161 30.32 Q 255.201 30.32 253.481 28.8 A 4.666 4.666 0 0 1 252.177 26.803 Q 251.907 26.032 251.812 25.083 A 10.885 10.885 0 0 1 251.761 24 Q 251.761 21.551 252.669 18.616 A 27.145 27.145 0 0 1 252.881 17.96 Q 254.001 14.64 256.481 12.22 A 8.424 8.424 0 0 1 262.027 9.822 A 11.151 11.151 0 0 1 262.721 9.8 Q 267.841 9.8 267.841 16.2 Z M 335.841 16.2 L 335.841 16.24 Q 335.956 16.279 336.259 16.28 A 4.967 4.967 0 0 0 336.281 16.28 Q 337.307 16.28 338.574 15.857 A 12.355 12.355 0 0 0 339.321 15.58 A 15.556 15.556 0 0 0 341.859 14.274 A 13.99 13.99 0 0 0 342.441 13.88 L 342.801 14.96 A 8.467 8.467 0 0 1 341.274 16.235 A 11.342 11.342 0 0 1 339.781 17.06 A 15.268 15.268 0 0 1 336.534 18.128 A 17.566 17.566 0 0 1 335.721 18.28 A 21.132 21.132 0 0 1 335.176 21.591 A 15.805 15.805 0 0 1 334.081 24.64 A 12.581 12.581 0 0 1 332.676 26.918 A 9.625 9.625 0 0 1 330.681 28.84 Q 328.601 30.32 326.161 30.32 Q 323.201 30.32 321.481 28.8 A 4.666 4.666 0 0 1 320.177 26.803 Q 319.907 26.032 319.812 25.083 A 10.885 10.885 0 0 1 319.761 24 Q 319.761 21.551 320.669 18.616 A 27.145 27.145 0 0 1 320.881 17.96 Q 322.001 14.64 324.481 12.22 A 8.424 8.424 0 0 1 330.027 9.822 A 11.151 11.151 0 0 1 330.721 9.8 Q 335.841 9.8 335.841 16.2 Z M 17.481 30.16 L 21.721 10.16 L 27.481 10.16 L 26.961 12.64 A 22.162 22.162 0 0 1 27.944 11.819 Q 28.436 11.434 28.888 11.133 A 10.532 10.532 0 0 1 29.421 10.8 Q 30.521 10.16 31.801 10.16 A 2.996 2.996 0 0 1 32.701 10.289 A 2.36 2.36 0 0 1 33.821 11.04 A 3.143 3.143 0 0 1 34.556 12.964 A 4.016 4.016 0 0 1 34.561 13.16 Q 34.561 14.32 33.801 15.2 A 2.481 2.481 0 0 1 32.285 16.032 A 3.624 3.624 0 0 1 31.681 16.08 A 2.866 2.866 0 0 1 31.277 16.054 Q 30.726 15.975 30.501 15.66 Q 30.201 15.24 30.041 14.44 Q 29.943 14.019 29.846 13.782 A 1.486 1.486 0 0 0 29.801 13.68 A 0.41 0.41 0 0 0 29.504 13.455 A 0.684 0.684 0 0 0 29.361 13.44 A 3.46 3.46 0 0 0 28.721 13.497 Q 28.326 13.571 28.006 13.744 A 2.143 2.143 0 0 0 27.941 13.78 Q 27.361 14.12 26.441 14.96 L 23.241 30.16 L 17.481 30.16 Z M 268.361 30.16 L 272.601 10.16 L 278.361 10.16 L 277.841 12.64 A 22.162 22.162 0 0 1 278.824 11.819 Q 279.316 11.434 279.768 11.133 A 10.532 10.532 0 0 1 280.301 10.8 Q 281.401 10.16 282.681 10.16 A 2.996 2.996 0 0 1 283.581 10.289 A 2.36 2.36 0 0 1 284.701 11.04 A 3.143 3.143 0 0 1 285.436 12.964 A 4.016 4.016 0 0 1 285.441 13.16 Q 285.441 14.32 284.681 15.2 A 2.481 2.481 0 0 1 283.165 16.032 A 3.624 3.624 0 0 1 282.561 16.08 A 2.866 2.866 0 0 1 282.157 16.054 Q 281.606 15.975 281.381 15.66 Q 281.081 15.24 280.921 14.44 Q 280.823 14.019 280.726 13.782 A 1.486 1.486 0 0 0 280.681 13.68 A 0.41 0.41 0 0 0 280.384 13.455 A 0.684 0.684 0 0 0 280.241 13.44 A 3.46 3.46 0 0 0 279.601 13.497 Q 279.206 13.571 278.886 13.744 A 2.143 2.143 0 0 0 278.821 13.78 Q 278.241 14.12 277.321 14.96 L 274.121 30.16 L 268.361 30.16 Z M 400.121 9.72 L 406.041 8.92 Q 406.241 14.04 406.721 20 Q 406.913 22.311 406.92 23.398 A 12.492 12.492 0 0 1 406.921 23.48 Q 406.921 24.4 406.761 25 A 26 26 0 0 0 407.85 24.341 Q 408.953 23.633 409.641 23 L 411.321 23 Q 408.761 25.96 405.201 28 A 6.866 6.866 0 0 1 402.446 29.784 A 8.014 8.014 0 0 1 402.341 29.82 Q 400.641 30.4 398.921 30.4 A 8.279 8.279 0 0 1 397.46 30.278 Q 396.62 30.128 395.931 29.791 A 4.958 4.958 0 0 1 395.681 29.66 A 5.398 5.398 0 0 1 394.508 28.788 A 4.48 4.48 0 0 1 393.721 27.74 Q 393.081 26.56 393.081 25.28 A 4.735 4.735 0 0 1 393.233 24.054 A 3.859 3.859 0 0 1 393.701 22.98 A 4.438 4.438 0 0 1 394.327 22.192 A 3.407 3.407 0 0 1 395.201 21.56 Q 396.761 18.76 397.921 15.9 A 75.197 75.197 0 0 0 399.324 12.146 A 89.95 89.95 0 0 0 400.121 9.72 Z M 204.721 23 L 207.441 10.16 L 213.201 10.16 L 210.321 23.76 A 4.802 4.802 0 0 0 210.168 24.747 A 5.566 5.566 0 0 0 210.161 25.04 A 2.654 2.654 0 0 0 210.189 25.444 Q 210.221 25.65 210.288 25.814 A 0.99 0.99 0 0 0 210.541 26.18 A 1.104 1.104 0 0 0 210.887 26.384 Q 211.208 26.507 211.692 26.519 A 4.316 4.316 0 0 0 211.801 26.52 A 2.769 2.769 0 0 0 213.32 26.057 A 4.026 4.026 0 0 0 213.961 25.54 A 5.219 5.219 0 0 0 215.071 23.919 A 6.749 6.749 0 0 0 215.401 23 L 217.081 23 A 19.702 19.702 0 0 1 216.182 25.211 Q 214.948 27.754 213.281 28.86 A 10.199 10.199 0 0 1 211.366 29.872 A 7.32 7.32 0 0 1 208.681 30.4 A 4.988 4.988 0 0 1 207.268 30.21 A 3.854 3.854 0 0 1 205.581 29.2 Q 204.401 28 204.401 25.6 A 8.191 8.191 0 0 1 204.432 24.917 Q 204.501 24.1 204.721 23 Z M 222.841 26.72 A 1.88 1.88 0 0 0 223.726 26.487 Q 224.017 26.333 224.308 26.078 A 4.816 4.816 0 0 0 224.761 25.62 A 7.377 7.377 0 0 0 225.528 24.55 Q 225.861 23.992 226.159 23.313 A 14.805 14.805 0 0 0 226.441 22.62 A 17.867 17.867 0 0 0 227.184 20.081 A 22.193 22.193 0 0 0 227.481 18.4 A 1.234 1.234 0 0 1 226.54 17.6 Q 226.444 17.351 226.414 17.029 A 3.335 3.335 0 0 1 226.401 16.72 Q 226.401 15.607 226.972 15.01 A 1.96 1.96 0 0 1 227.641 14.56 Q 227.579 13.547 227.376 13.017 A 1.523 1.523 0 0 0 227.241 12.74 A 1.018 1.018 0 0 0 226.663 12.314 Q 226.486 12.259 226.269 12.245 A 2.349 2.349 0 0 0 226.121 12.24 A 2.044 2.044 0 0 0 225.021 12.582 Q 224.277 13.05 223.561 14.16 A 14.774 14.774 0 0 0 222.379 16.415 A 19.967 19.967 0 0 0 221.561 18.76 Q 220.801 21.44 220.801 23.48 A 13.178 13.178 0 0 0 220.825 24.311 Q 220.903 25.537 221.231 26.046 A 1.202 1.202 0 0 0 221.241 26.06 A 1.35 1.35 0 0 0 221.911 26.575 Q 222.152 26.666 222.455 26.7 A 3.461 3.461 0 0 0 222.841 26.72 Z M 259.761 26.72 A 1.88 1.88 0 0 0 260.646 26.487 Q 260.937 26.333 261.228 26.078 A 4.816 4.816 0 0 0 261.681 25.62 A 7.377 7.377 0 0 0 262.448 24.55 Q 262.781 23.992 263.079 23.313 A 14.805 14.805 0 0 0 263.361 22.62 A 17.867 17.867 0 0 0 264.104 20.081 A 22.193 22.193 0 0 0 264.401 18.4 A 1.234 1.234 0 0 1 263.46 17.6 Q 263.364 17.351 263.334 17.029 A 3.335 3.335 0 0 1 263.321 16.72 Q 263.321 15.607 263.892 15.01 A 1.96 1.96 0 0 1 264.561 14.56 Q 264.499 13.547 264.296 13.017 A 1.523 1.523 0 0 0 264.161 12.74 A 1.018 1.018 0 0 0 263.583 12.314 Q 263.406 12.259 263.189 12.245 A 2.349 2.349 0 0 0 263.041 12.24 A 2.044 2.044 0 0 0 261.941 12.582 Q 261.197 13.05 260.481 14.16 A 14.774 14.774 0 0 0 259.299 16.415 A 19.967 19.967 0 0 0 258.481 18.76 Q 257.721 21.44 257.721 23.48 A 13.178 13.178 0 0 0 257.745 24.311 Q 257.823 25.537 258.151 26.046 A 1.202 1.202 0 0 0 258.161 26.06 A 1.35 1.35 0 0 0 258.831 26.575 Q 259.072 26.666 259.375 26.7 A 3.461 3.461 0 0 0 259.761 26.72 Z M 327.761 26.72 A 1.88 1.88 0 0 0 328.646 26.487 Q 328.937 26.333 329.228 26.078 A 4.816 4.816 0 0 0 329.681 25.62 A 7.377 7.377 0 0 0 330.448 24.55 Q 330.781 23.992 331.079 23.313 A 14.805 14.805 0 0 0 331.361 22.62 A 17.867 17.867 0 0 0 332.104 20.081 A 22.193 22.193 0 0 0 332.401 18.4 A 1.234 1.234 0 0 1 331.46 17.6 Q 331.364 17.351 331.334 17.029 A 3.335 3.335 0 0 1 331.321 16.72 Q 331.321 15.607 331.892 15.01 A 1.96 1.96 0 0 1 332.561 14.56 Q 332.499 13.547 332.296 13.017 A 1.523 1.523 0 0 0 332.161 12.74 A 1.018 1.018 0 0 0 331.583 12.314 Q 331.406 12.259 331.189 12.245 A 2.349 2.349 0 0 0 331.041 12.24 A 2.044 2.044 0 0 0 329.941 12.582 Q 329.197 13.05 328.481 14.16 A 14.774 14.774 0 0 0 327.299 16.415 A 19.967 19.967 0 0 0 326.481 18.76 Q 325.721 21.44 325.721 23.48 A 13.178 13.178 0 0 0 325.745 24.311 Q 325.823 25.537 326.151 26.046 A 1.202 1.202 0 0 0 326.161 26.06 A 1.35 1.35 0 0 0 326.831 26.575 Q 327.072 26.666 327.375 26.7 A 3.461 3.461 0 0 0 327.761 26.72 Z M 44.761 23 L 46.681 13.96 A 1.44 1.44 0 0 0 46.524 13.318 A 2.076 2.076 0 0 0 46.281 12.94 A 1.262 1.262 0 0 0 45.63 12.517 Q 45.369 12.44 45.041 12.44 Q 43.667 12.44 42.529 13.812 A 6.814 6.814 0 0 0 42.161 14.3 A 13.044 13.044 0 0 0 40.898 16.633 A 17.347 17.347 0 0 0 40.161 18.78 A 23.6 23.6 0 0 0 39.722 20.658 Q 39.533 21.661 39.471 22.554 A 12.229 12.229 0 0 0 39.441 23.4 A 10.788 10.788 0 0 0 39.468 24.207 Q 39.561 25.433 39.96 25.897 A 0.96 0.96 0 0 0 40.021 25.96 Q 40.601 26.52 41.441 26.52 A 2.326 2.326 0 0 0 42.497 26.255 Q 42.961 26.021 43.421 25.58 Q 44.401 24.64 44.761 23 Z M 131.961 23 L 133.881 13.96 A 1.44 1.44 0 0 0 133.724 13.318 A 2.076 2.076 0 0 0 133.481 12.94 A 1.262 1.262 0 0 0 132.83 12.517 Q 132.569 12.44 132.241 12.44 Q 130.867 12.44 129.729 13.812 A 6.814 6.814 0 0 0 129.361 14.3 A 13.044 13.044 0 0 0 128.098 16.633 A 17.347 17.347 0 0 0 127.361 18.78 A 23.6 23.6 0 0 0 126.922 20.658 Q 126.733 21.661 126.671 22.554 A 12.229 12.229 0 0 0 126.641 23.4 A 10.788 10.788 0 0 0 126.668 24.207 Q 126.761 25.433 127.16 25.897 A 0.96 0.96 0 0 0 127.221 25.96 Q 127.801 26.52 128.641 26.52 A 2.326 2.326 0 0 0 129.697 26.255 Q 130.161 26.021 130.621 25.58 Q 131.601 24.64 131.961 23 Z M 183.881 23 L 185.801 13.96 A 1.44 1.44 0 0 0 185.644 13.318 A 2.076 2.076 0 0 0 185.401 12.94 A 1.262 1.262 0 0 0 184.75 12.517 Q 184.489 12.44 184.161 12.44 Q 182.787 12.44 181.649 13.812 A 6.814 6.814 0 0 0 181.281 14.3 A 13.044 13.044 0 0 0 180.018 16.633 A 17.347 17.347 0 0 0 179.281 18.78 A 23.6 23.6 0 0 0 178.842 20.658 Q 178.653 21.661 178.591 22.554 A 12.229 12.229 0 0 0 178.561 23.4 A 10.788 10.788 0 0 0 178.588 24.207 Q 178.681 25.433 179.08 25.897 A 0.96 0.96 0 0 0 179.141 25.96 Q 179.721 26.52 180.561 26.52 A 2.326 2.326 0 0 0 181.617 26.255 Q 182.081 26.021 182.541 25.58 Q 183.521 24.64 183.881 23 Z M 348.561 23.2 L 348.561 23 L 350.521 13.84 A 2.526 2.526 0 0 0 350.278 13.22 Q 349.836 12.44 348.881 12.44 Q 347.507 12.44 346.369 13.812 A 6.814 6.814 0 0 0 346.001 14.3 A 13.044 13.044 0 0 0 344.738 16.633 A 17.347 17.347 0 0 0 344.001 18.78 A 23.6 23.6 0 0 0 343.562 20.658 Q 343.373 21.661 343.311 22.554 A 12.229 12.229 0 0 0 343.281 23.4 A 10.788 10.788 0 0 0 343.308 24.207 Q 343.401 25.433 343.8 25.897 A 0.96 0.96 0 0 0 343.861 25.96 Q 344.441 26.52 345.281 26.52 A 2.332 2.332 0 0 0 346.272 26.288 Q 346.596 26.137 346.923 25.888 A 4.876 4.876 0 0 0 347.221 25.64 A 4.066 4.066 0 0 0 348.203 24.275 A 5.687 5.687 0 0 0 348.561 23.2 Z M 397.641 27.24 A 4.107 4.107 0 0 0 398.883 27.06 A 3.407 3.407 0 0 0 400.121 26.36 A 2.665 2.665 0 0 0 400.855 25.255 Q 401.017 24.814 401.08 24.266 A 6.503 6.503 0 0 0 401.121 23.52 Q 401.121 22.602 400.98 21.12 A 60.523 60.523 0 0 0 400.881 20.16 A 1993.345 1993.345 0 0 1 400.719 18.309 Q 400.516 15.974 400.414 14.712 A 161.443 161.443 0 0 1 400.361 14.04 A 31.128 31.128 0 0 1 399.478 16.528 Q 398.963 17.815 398.282 19.259 A 70.512 70.512 0 0 1 397.121 21.6 A 2.05 2.05 0 0 1 397.596 21.934 A 1.418 1.418 0 0 1 398.041 23 Q 398.041 23.76 397.541 24.36 A 1.692 1.692 0 0 1 397.024 24.786 A 1.583 1.583 0 0 1 396.281 24.96 A 2.081 2.081 0 0 1 395.903 24.929 Q 395.381 24.832 395.201 24.44 Q 395.201 25.88 395.781 26.56 A 1.776 1.776 0 0 0 396.561 27.08 Q 396.857 27.184 397.223 27.221 A 4.189 4.189 0 0 0 397.641 27.24 Z M 364.681 20.16 Q 366.161 20.08 367.501 19.12 Q 368.841 18.16 369.661 16.68 Q 370.481 15.2 370.481 13.56 Q 370.481 11.92 369.481 11.92 Q 368.041 11.92 366.661 14.44 A 18.089 18.089 0 0 0 365.132 18.227 A 22.089 22.089 0 0 0 364.681 20.16 Z M 197.157 29.988 A 3.117 3.117 0 0 0 198.601 30.32 A 3.689 3.689 0 0 0 198.606 30.32 A 3.115 3.115 0 0 0 200.861 29.4 A 3.63 3.63 0 0 0 200.904 29.357 A 3.011 3.011 0 0 0 201.801 27.16 A 3.681 3.681 0 0 0 201.8 27.119 A 3.078 3.078 0 0 0 200.861 24.9 A 3.759 3.759 0 0 0 200.831 24.871 A 3.077 3.077 0 0 0 198.601 23.96 A 3.668 3.668 0 0 0 198.539 23.961 A 3.01 3.01 0 0 0 196.361 24.9 A 3.572 3.572 0 0 0 196.357 24.904 A 3.115 3.115 0 0 0 195.441 27.16 Q 195.441 28.48 196.361 29.4 A 3.172 3.172 0 0 0 197.157 29.988 Z M 377.197 29.988 A 3.117 3.117 0 0 0 378.641 30.32 A 3.689 3.689 0 0 0 378.646 30.32 A 3.115 3.115 0 0 0 380.901 29.4 A 3.63 3.63 0 0 0 380.944 29.357 A 3.011 3.011 0 0 0 381.841 27.16 A 3.681 3.681 0 0 0 381.84 27.119 A 3.078 3.078 0 0 0 380.901 24.9 A 3.759 3.759 0 0 0 380.871 24.871 A 3.077 3.077 0 0 0 378.641 23.96 A 3.668 3.668 0 0 0 378.579 23.961 A 3.01 3.01 0 0 0 376.401 24.9 A 3.572 3.572 0 0 0 376.397 24.904 A 3.115 3.115 0 0 0 375.481 27.16 Q 375.481 28.48 376.401 29.4 A 3.172 3.172 0 0 0 377.197 29.988 Z M 389.677 7.628 A 3.117 3.117 0 0 0 391.121 7.96 A 3.689 3.689 0 0 0 391.126 7.96 A 3.115 3.115 0 0 0 393.381 7.04 A 3.63 3.63 0 0 0 393.424 6.997 A 3.011 3.011 0 0 0 394.321 4.8 A 3.681 3.681 0 0 0 394.32 4.759 A 3.078 3.078 0 0 0 393.381 2.54 A 3.759 3.759 0 0 0 393.351 2.511 A 3.077 3.077 0 0 0 391.121 1.6 A 3.668 3.668 0 0 0 391.059 1.601 A 3.01 3.01 0 0 0 388.881 2.54 A 3.572 3.572 0 0 0 388.877 2.544 A 3.115 3.115 0 0 0 387.961 4.8 Q 387.961 6.12 388.881 7.04 A 3.172 3.172 0 0 0 389.677 7.628 Z M 167.717 7.668 A 3.117 3.117 0 0 0 169.161 8 A 3.689 3.689 0 0 0 169.166 8 A 3.115 3.115 0 0 0 171.421 7.08 A 3.63 3.63 0 0 0 171.464 7.037 A 3.011 3.011 0 0 0 172.361 4.84 A 3.681 3.681 0 0 0 172.36 4.799 A 3.078 3.078 0 0 0 171.421 2.58 A 3.759 3.759 0 0 0 171.391 2.551 A 3.077 3.077 0 0 0 169.161 1.64 A 3.668 3.668 0 0 0 169.099 1.641 A 3.01 3.01 0 0 0 166.921 2.58 A 3.572 3.572 0 0 0 166.917 2.584 A 3.115 3.115 0 0 0 166.001 4.84 Q 166.001 6.16 166.921 7.08 A 3.172 3.172 0 0 0 167.717 7.668 Z M 209.957 7.668 A 3.117 3.117 0 0 0 211.401 8 A 3.689 3.689 0 0 0 211.406 8 A 3.115 3.115 0 0 0 213.661 7.08 A 3.63 3.63 0 0 0 213.704 7.037 A 3.011 3.011 0 0 0 214.601 4.84 A 3.681 3.681 0 0 0 214.6 4.799 A 3.078 3.078 0 0 0 213.661 2.58 A 3.759 3.759 0 0 0 213.631 2.551 A 3.077 3.077 0 0 0 211.401 1.64 A 3.668 3.668 0 0 0 211.339 1.641 A 3.01 3.01 0 0 0 209.161 2.58 A 3.572 3.572 0 0 0 209.157 2.584 A 3.115 3.115 0 0 0 208.241 4.84 Q 208.241 6.16 209.161 7.08 A 3.172 3.172 0 0 0 209.957 7.668 Z M 239.401 33.48 L 239.921 31.16 Q 237.801 31.88 236.661 32.82 A 3.001 3.001 0 0 0 235.531 35.001 A 3.848 3.848 0 0 0 235.521 35.28 A 0.998 0.998 0 0 0 235.681 35.815 Q 235.798 36.003 236.001 36.18 Q 236.481 36.6 237.121 36.6 A 1.592 1.592 0 0 0 238.358 35.987 Q 239.022 35.217 239.401 33.48 Z M 382.561 33.48 L 382.801 32.32 A 14.55 14.55 0 0 0 381.37 32.927 Q 379.952 33.629 379.341 34.437 A 2.099 2.099 0 0 0 378.881 35.72 Q 378.881 36.24 379.241 36.64 A 1.179 1.179 0 0 0 379.92 37.012 A 1.734 1.734 0 0 0 380.241 37.04 A 1.12 1.12 0 0 0 380.828 36.864 Q 381.183 36.649 381.527 36.168 A 4.387 4.387 0 0 0 381.561 36.12 A 4.678 4.678 0 0 0 381.984 35.356 Q 382.157 34.969 382.301 34.5 A 11.509 11.509 0 0 0 382.561 33.48 Z" stroke-linecap="round" />
</g>
</svg>